<svg xmlns="http://www.w3.org/2000/svg" viewBox="0 0 128 128">
  <defs>
    <linearGradient id="ring" x1="16" y1="10" x2="112" y2="118" gradientUnits="userSpaceOnUse">
      <stop offset="0" stop-color="#86e33b"/>
      <stop offset=".52" stop-color="#18d7c9"/>
      <stop offset="1" stop-color="#1479ff"/>
    </linearGradient>
    <linearGradient id="cube" x1="43" y1="47" x2="84" y2="88" gradientUnits="userSpaceOnUse">
      <stop offset="0" stop-color="#a6f14c"/>
      <stop offset=".48" stop-color="#18d7c9"/>
      <stop offset="1" stop-color="#0755a5"/>
    </linearGradient>
  </defs>
  <path fill="none" stroke="url(#ring)" stroke-width="12" stroke-linecap="round" stroke-linejoin="round" d="M34 37c8-12 18-18 30-18s22 6 30 18"/>
  <path fill="none" stroke="url(#ring)" stroke-width="12" stroke-linecap="round" stroke-linejoin="round" d="M22 54c-6 16-3 31 9 45 9 10 20 16 33 18"/>
  <path fill="none" stroke="url(#ring)" stroke-width="12" stroke-linecap="round" stroke-linejoin="round" d="M106 54c6 16 3 31-9 45-9 10-20 16-33 18"/>
  <circle cx="64" cy="34" r="7" fill="#86e33b"/>
  <circle cx="31" cy="75" r="7" fill="#18d7c9"/>
  <circle cx="97" cy="75" r="7" fill="#1479ff"/>
  <path fill="url(#cube)" d="M64 51 88 64 64 77 40 64z"/>
  <path fill="#0bb7aa" d="M40 68 61 80v25L40 92z"/>
  <path fill="#0d5eb8" d="M88 68 67 80v25l21-13z"/>
  <path fill="#91df40" d="M64 51 88 64 64 77 40 64z" opacity=".88"/>
</svg>
